<svg id="Layer_1" enable-background="new 0 0 511 511" height="512" viewBox="0 0 511 511" width="512" xmlns="http://www.w3.org/2000/svg"><g><g><path d="m502.593 318.121c.236-.91.463-1.826.688-2.743-.222.917-.455 1.83-.688 2.743z" fill="#afe6ff"/><path d="m255.5 0c-98.131 0-158.574 55.347-158.741 55.441-3.787 17.481-10.374 42.85-10.374 61.465 0 140.833 118.763 254.972 259.596 254.972 60.017 0 115.159-27.944 158.719-62.639.178-1.087 5.8-23.477 5.8-54.239 0-140.833-114.167-255-255-255z" fill="#fcb54c"/><path d="m504.7 309.239c-43.559 34.696-98.724 55.441-158.741 55.441-140.833 0-255-114.167-255-255 0-18.615 2.013-36.757 5.8-54.239-.006.005-.011.01-.017.014-58.645 46.72-96.242 118.737-96.242 199.545 0 140.833 114.167 255 255 255 119.042 0 219.002-81.583 247.093-191.879.233-.913.466-1.826.688-2.743.107-.436 1.068-4.523 1.419-6.139z" fill="#ff956a"/></g><g><g><path d="m424.717 223.919c-7.836-8.471-18.949-13.328-30.489-13.328h-26.96v32h26.96c3.627 0 5.943 1.917 7 3.06 1.058 1.144 2.789 3.601 2.508 7.217l-11.026 141.705c-.384 4.933-4.561 8.797-9.508 8.797h-6.025v32h6.025c21.549 0 39.74-16.829 41.412-38.314l11.026-141.706c.895-11.506-3.086-22.962-10.923-31.431z" fill="#afe6ff"/></g><g><path d="m381.226 403.37h-54.402v-160.78h42.512v-32h-74.512v224.78h86.402z" fill="#a0cafe"/></g><path d="m203.365 173.932h145.858v314.815h-145.858z" fill="#ffe65a"/><path d="m115.041 173.932h96.293v314.815h-96.293z" fill="#ffd23c"/><path d="m344.759 474.803h-135.032v36.197h135.032c9.996 0 18.099-8.103 18.099-18.099s-8.103-18.098-18.099-18.098z" fill="#afe6ff"/><path d="m212.907 474.803h-92.969c-9.814 0-18.172 7.631-18.521 17.439-.366 10.296 7.872 18.758 18.087 18.758h93.403c9.996 0 18.099-8.103 18.099-18.099 0-9.995-8.103-18.098-18.099-18.098z" fill="#a0cafe"/><path d="m351.422 132.974c-5.497-4.63-12.174-7.827-19.378-9.099-8.91-1.573-15.745-8.983-16.682-17.982-1.682-16.146-12.867-30.408-28.931-35.383-4.596-1.423-8.573-4.356-11.224-8.371-8.689-13.159-23.602-21.844-40.551-21.844-16.234 0-30.601 7.966-39.419 20.2-4.624 6.416-12.374 9.979-20.175 8.676-4.492-.75-8.956-.782-13.288-.209-.163.956-.432 1.898-.781 2.81v61.201c0 24.473 19.839 44.312 44.312 44.312h55.48c.267-.01.534-.007.802 0h45.524c24.472 0 44.311-19.839 44.311-44.311z" fill="#fff"/><circle cx="176.397" cy="37.988" fill="#fff" r="13.541"/><circle cx="354.045" cy="82.175" fill="#fff" r="8.813"/><g fill="#fff5aa"><circle cx="289.086" cy="266.376" r="10.376"/><circle cx="261.194" cy="329.621" r="16.514"/><circle cx="305.451" cy="410.208" r="11.89"/><circle cx="252.447" cy="395.019" r="11.89"/></g><circle cx="158.478" cy="314.098" fill="#ffe65a" r="15.523"/><circle cx="192.977" cy="266.388" fill="#ffe65a" r="10.388"/><circle cx="155.219" cy="440.306" fill="#ffe65a" r="12.264"/><path d="m349.732 131.619c-18.715 25.378-48.818 41.845-82.771 41.845-56.765 0-102.782-46.017-102.782-102.782 0-.66.013-1.316.025-1.973-22.51 1.743-41.966 20.244-42.914 44.07-.279 7.011-3.867 13.448-9.834 17.139-12.652 7.825-21.083 21.82-21.083 37.79 0 27.36 23.832 46.621 48.629 44.26 8.397-.799 15.699 5.674 15.699 14.109 0 6.709 5.248 12.463 11.956 12.586 6.833.125 12.412-5.377 12.412-12.182v-26.358c0-9.527 8.455-16.692 17.894-15.404.112.015.224.03.337.044 7.9.996 13.922 7.528 13.922 15.491v60.922c0 8.25 6.688 14.937 14.937 14.937 8.25 0 14.937-6.688 14.937-14.937v-52.406c0-6.86 6.346-12.006 13.038-10.499 10.04 2.261 20.745.368 29.475-5.49 4.131-2.771 9.636-2.119 13.252 1.297 7.946 7.509 18.892 11.875 30.855 11.1 21.566-1.395 38.486-19.732 38.263-41.342-.138-13.426-6.611-24.924-16.247-32.217z" fill="#fffad7"/></g></g></svg>